<?xml version="1.0" standalone="no"?>
<!DOCTYPE svg PUBLIC "-//W3C//DTD SVG 20010904//EN"
 "http://www.w3.org/TR/2001/REC-SVG-20010904/DTD/svg10.dtd">
<svg version="1.0" xmlns="http://www.w3.org/2000/svg"
 width="148.000000pt" height="148.000000pt" viewBox="0 0 148.000000 148.000000"
 preserveAspectRatio="xMidYMid meet">
<metadata>
Created by potrace 1.11, written by Peter Selinger 2001-2013
</metadata>
<g transform="translate(0.000000,148.000000) scale(0.100000,-0.100000)"
fill="#000000" stroke="none">
<path d="M566 1147 c-16 -12 -18 -44 -22 -357 -2 -190 -6 -365 -8 -390 -2 -25
-1 -51 2 -57 7 -21 32 -15 41 10 9 22 19 114 20 174 1 30 4 32 82 58 70 24 80
30 77 49 -3 18 -8 21 -42 18 -21 -2 -56 -10 -76 -17 l-38 -13 1 54 1 53 53 22
c59 24 66 30 57 52 -6 16 -53 14 -86 -4 -24 -13 -27 0 -19 77 1 6 26 18 57 28
88 28 88 76 -1 56 -26 -6 -50 -8 -53 -6 -2 3 -4 45 -3 94 2 97 -9 124 -43 99z"/>
<path d="M1021 1111 c-48 -48 -67 -153 -34 -187 31 -30 187 -3 362 65 30 11
58 18 62 16 6 -4 4 -221 -4 -520 l-2 -60 -35 3 c-19 1 -52 12 -73 23 -37 19
-57 18 -57 -2 0 -19 64 -69 95 -74 16 -3 42 -7 57 -9 17 -3 36 2 49 13 20 16
21 28 26 226 11 455 10 465 -50 465 -17 0 -91 -20 -162 -45 -134 -46 -225 -65
-225 -48 0 5 9 36 20 68 17 51 18 61 6 73 -12 12 -17 11 -35 -7z"/>
<path d="M396 1048 c-3 -13 -6 -42 -6 -65 l0 -41 -62 -19 c-63 -19 -77 -34
-58 -63 8 -13 15 -13 58 3 64 22 62 23 62 -16 0 -30 -5 -35 -52 -58 -42 -19
-52 -28 -50 -44 6 -33 6 -33 83 -1 12 6 15 0 15 -31 -1 -37 -4 -39 -69 -73
-67 -35 -81 -56 -54 -78 10 -8 26 -5 62 13 27 14 50 25 52 25 2 0 3 -31 3 -69
0 -50 4 -70 14 -74 35 -14 39 18 52 383 3 102 6 187 6 190 1 31 -4 40 -26 40
-16 0 -26 -7 -30 -22z"/>
<path d="M211 1033 c-7 -16 -55 -99 -107 -185 -52 -86 -94 -161 -94 -166 0 -5
7 -12 15 -16 10 -3 31 19 66 70 29 41 54 72 57 70 8 -9 2 -157 -11 -251 -7
-49 -11 -98 -9 -107 5 -25 39 -22 47 3 27 86 46 370 26 407 -8 15 -2 31 30 83
46 75 52 119 16 119 -16 0 -28 -9 -36 -27z"/>
<path d="M1135 834 c-5 -1 -35 -5 -67 -9 -33 -4 -58 -12 -61 -20 -3 -7 5 -53
19 -102 13 -48 25 -105 26 -126 2 -59 20 -66 84 -32 63 34 128 91 119 105 -3
5 1 23 9 39 24 45 27 97 8 114 -22 20 -106 39 -137 31z m83 -72 c18 -12 -45
-133 -80 -152 -37 -20 -34 -24 -53 93 -3 17 -8 40 -11 50 -5 15 3 17 63 17 37
0 74 -4 81 -8z"/>
</g>
</svg>
